<?xml version="1.0" encoding="UTF-8" standalone="no"?>
<!-- Generator: Adobe Illustrator 19.2.1, SVG Export Plug-In . SVG Version: 6.00 Build 0)  -->

<svg
   version="1.1"
   id="layer"
   x="0px"
   y="0px"
   viewBox="0 0 652 170"
   xml:space="preserve"
   sodipodi:docname="mp.svg"
   width="652"
   height="170"
   inkscape:version="1.1.2 (0a00cf5339, 2022-02-04)"
   xmlns:inkscape="http://www.inkscape.org/namespaces/inkscape"
   xmlns:sodipodi="http://sodipodi.sourceforge.net/DTD/sodipodi-0.dtd"
   xmlns="http://www.w3.org/2000/svg"
   xmlns:svg="http://www.w3.org/2000/svg"><defs
   id="defs15" /><sodipodi:namedview
   id="namedview13"
   pagecolor="#ffffff"
   bordercolor="#000000"
   borderopacity="0.25"
   inkscape:pageshadow="2"
   inkscape:pageopacity="0.0"
   inkscape:pagecheckerboard="0"
   showgrid="false"
   height="170px"
   inkscape:zoom="1.0138037"
   inkscape:cx="507.4947"
   inkscape:cy="254.48714"
   inkscape:window-width="1600"
   inkscape:window-height="836"
   inkscape:window-x="0"
   inkscape:window-y="27"
   inkscape:window-maximized="1"
   inkscape:current-layer="layer" />
<style
   type="text/css"
   id="style2">
	.st0{fill:#0A0080;}
	.st1{fill:#00BCFF;}
	.st2{fill:#FFFFFF;}
</style>



<g
   id="g836"
   transform="translate(9.9875,-232.19979)"><path
     class="st0"
     d="m 610.1,262.9 c -10,-9.9 -26.1,-9.9 -36.1,0 -7.9,10.4 -7.9,24.9 0,35.3 10,9.8 26.1,9.8 36.1,0 7.9,-10.4 7.9,-24.9 0,-35.3 z m -9.9,28.5 c -3.9,4.6 -10.8,5.1 -15.4,1.2 -0.4,-0.4 -0.8,-0.8 -1.2,-1.2 -3.9,-6.7 -3.9,-15 0,-21.8 3.9,-4.6 10.8,-5.1 15.4,-1.1 0.4,0.4 0.8,0.7 1.1,1.1 4,6.8 4,15 0.1,21.8 z m -91.5,-32.6 c -4.3,-2.1 -9,-3.1 -13.8,-3.1 -6.3,-0.7 -12.5,1.7 -16.9,6.2 -2.2,3 -3.4,6.5 -3.5,10.1 h 11.9 c 0.2,-1.6 0.8,-3.1 1.7,-4.3 1.7,-1.6 3.9,-2.4 6.2,-2.2 2.1,-0.1 4.1,0.3 6,1.1 1.4,0.8 2.2,2.4 2,4 0,1.6 -1.1,3.1 -2.7,3.5 -1.5,0.6 -3.1,0.9 -4.7,1.1 l -4.2,0.5 c -3.8,0.3 -7.5,1.4 -10.9,3.1 -4.5,2.5 -7.1,7.4 -6.8,12.6 -0.2,3.9 1.3,7.7 4.2,10.4 3,2.4 6.8,3.7 10.7,3.7 26.9,1.2 26.6,-14.1 26.8,-17.4 v -17.7 c 0.7,-4.7 -1.7,-9.4 -6,-11.6 z m -6.2,26.8 c 0.3,3.2 -1,6.4 -3.5,8.5 -2.2,1.5 -4.8,2.3 -7.4,2.3 -1.6,0 -3.1,-0.5 -4.3,-1.4 -1.3,-1.2 -2,-2.9 -1.8,-4.7 -0.1,-2.1 1,-4.2 2.9,-5.2 1.8,-0.9 3.7,-1.4 5.7,-1.7 l 2.8,-0.5 c 1.1,-0.2 2.2,-0.5 3.3,-0.8 0.8,-0.3 1.6,-0.7 2.4,-1.2 z m -55.1,-19.4 c 2.6,-0.2 5.1,0.9 6.8,2.9 1,1.4 1.6,3 1.9,4.7 h 13.3 c -0.1,-5.5 -2.7,-10.7 -7,-14.1 -4.6,-2.8 -9.9,-4.2 -15.3,-3.9 -6.4,-0.4 -12.7,2.1 -17.2,6.7 -4.4,5.2 -6.7,11.9 -6.2,18.8 -0.3,6.3 1.7,12.5 5.6,17.4 4.5,4.8 11,7.3 17.6,6.7 7,0.5 13.7,-2.6 18.1,-8.1 2.4,-3 3.9,-6.7 4.3,-10.6 H 456 c -0.2,2.2 -1,4.3 -2.3,6.1 -1.7,1.7 -4.1,2.6 -6.5,2.3 -3.9,0.2 -7.5,-2.2 -8.7,-5.9 -0.9,-2.7 -1.4,-5.5 -1.3,-8.3 -0.1,-2.9 0.3,-5.9 1.3,-8.7 1.2,-3.7 4.9,-6.2 8.9,-6 z m -27.5,-10.3 c -27.3,0 -25.6,24.1 -25.6,24.1 v 24.5 h 12.4 v -23 c -0.2,-2.9 0.3,-5.7 1.4,-8.4 2.1,-3.4 6,-5.2 10,-4.7 h 1.5 2.1 v -12.6 h -1.1 z m -45.3,35.8 c -0.5,0.7 -1,1.3 -1.7,1.9 -2,1.4 -4.5,2.1 -6.9,1.9 -2.3,0.1 -4.6,-0.4 -6.6,-1.6 -3.3,-2.2 -5.2,-5.9 -5,-9.8 h 34.2 c 0.1,-3.1 0,-6.3 -0.4,-9.4 -0.5,-3.5 -1.8,-6.8 -3.8,-9.7 -2,-3 -4.8,-5.5 -8.1,-6.9 -3.5,-1.5 -7.2,-2.3 -11,-2.2 -6.3,-0.2 -12.3,2.1 -16.8,6.5 -4.6,5.1 -7,11.9 -6.5,18.8 -0.6,7 2,14 7.2,18.8 4.7,3.8 10.5,5.9 16.6,5.8 6.6,0.4 13.1,-2.1 17.7,-6.9 2,-2 3.5,-4.4 4.3,-7.1 z M 358,268.6 c 2,-1.9 4.6,-2.8 7.3,-2.7 2.7,-0.1 5.2,0.8 7.3,2.5 2.1,1.9 3.3,4.6 3.3,7.4 h -21.2 c 0.3,-2.6 1.5,-5.1 3.3,-7.2 z m -20.9,35.9 H 326 V 276 c 0.5,-4.4 -2.7,-8.3 -7,-8.7 -0.4,0 -0.9,-0.1 -1.3,0 -4.6,-0.1 -8.4,3.5 -8.6,8.1 0,0.2 0,0.5 0,0.7 v 28.4 H 297.8 V 276 c 0.5,-4.3 -2.6,-8.2 -6.9,-8.7 -0.4,0 -0.9,-0.1 -1.3,0 -4.6,-0.2 -8.4,3.4 -8.6,7.9 0,0.3 0,0.6 0,0.9 v 28.4 h -11.4 v -28.2 c -0.7,-10.7 7.4,-19.9 18.1,-20.6 0.6,0 1.2,0 1.7,0 5.5,-0.1 10.7,2.3 14.1,6.6 3.5,-4.2 8.6,-6.6 14.1,-6.6 12.3,0 19.6,8.5 19.6,20.6 v 28.2 z m 227.2,-63.3 c 0,0 -12.4,-1.3 -12.4,8.7 v 13.2 c -1.3,-2.2 -3.2,-4 -5.4,-5.2 -2.3,-1.3 -4.9,-1.9 -7.6,-1.9 -5.7,-0.2 -11.2,2.4 -14.8,6.9 -4,5.6 -5.9,12.4 -5.5,19.2 -0.3,6.2 1.7,12.3 5.6,17.1 4.8,4.5 11.1,6.8 17.6,6.4 22.8,0 22.5,-19.5 22.5,-19.5 z m -14.8,50.5 c -1.8,2.6 -4.8,4.1 -7.9,3.9 -3.1,0.2 -6.1,-1.3 -7.8,-3.9 -1.9,-3.3 -2.8,-7 -2.6,-10.7 -0.1,-3.5 0.8,-7 2.5,-10.1 1.7,-2.7 4.7,-4.3 7.9,-4.1 2.3,0 4.5,0.8 6.2,2.3 3.2,3.4 4.8,8 4.4,12.7 0.1,3.5 -0.8,6.9 -2.7,9.8 z M 282.1,383 c 0,1.6 -0.6,3.2 -1.8,4.3 -1.1,1.2 -2.7,1.8 -4.4,1.8 h -6.2 v -43 c -0.5,-6.6 2.3,-13 7.5,-17.1 4.7,-3.4 10.4,-5.1 16.2,-4.7 6.1,-0.1 12,2.3 16.2,6.7 4.1,5 6.1,11.4 5.8,17.9 0.3,6.5 -1.6,13 -5.4,18.3 -3.3,4.4 -8.6,6.9 -14.1,6.8 -2.7,0.1 -5.5,-0.5 -8,-1.6 -2.5,-1.2 -4.5,-3.2 -5.8,-5.6 v 16.1 z m 20.7,-33.5 c 0.2,-3.8 -0.7,-7.5 -2.7,-10.7 -1.8,-2.5 -4.8,-3.9 -7.8,-3.8 -3,-0.1 -5.9,1.3 -7.7,3.8 -1.9,3.2 -2.8,7 -2.5,10.7 -0.3,3.6 0.7,7.2 2.7,10.2 1.8,2.5 4.8,3.9 7.8,3.8 3,0.1 5.8,-1.3 7.5,-3.8 2,-3 2.9,-6.6 2.7,-10.2 m 94.5,20.6 V 367 c -1.9,3.2 -5,5.5 -8.6,6.3 -3.6,0.8 -7.4,0.5 -10.8,-0.9 -3.9,-1.6 -7.2,-4.4 -9.4,-8 -2.8,-4.6 -4.1,-10 -3.8,-15.3 -0.3,-6.4 1.5,-12.7 5.1,-18 4,-4.8 10.1,-7.3 16.3,-6.9 5.7,-0.5 11.4,1.2 15.9,4.7 5.1,4.2 7.9,10.6 7.3,17.2 v 25.3 c 0.4,11.7 -8.8,21.4 -20.4,21.8 -0.9,0 -1.9,0 -2.8,-0.1 -9.6,0.3 -18,-6.1 -20.4,-15.4 h 13 c 2.1,3.5 6.2,5.4 10.3,4.7 2.1,-0.5 4,-1.8 5.4,-3.5 1.8,-2.5 2.8,-5.5 2.8,-8.6 m -20.5,-20.7 c 0,8.3 2.4,12.8 7.1,13.7 3.9,1.2 8,-0.1 10.5,-3.3 1.3,-1.8 2.1,-4 2.3,-6.2 0.4,-2.8 0.4,-5.6 0,-8.4 -0.4,-2.7 -1.4,-5.2 -3,-7.4 -1.6,-2.2 -4.1,-3.4 -6.8,-3.2 -3.5,-0.3 -6.7,1.6 -8.2,4.7 -1.5,3.2 -2.2,6.7 -2.2,10.2 m -22.2,-22.1 c -4.3,-2.1 -9,-3.1 -13.8,-3.1 -6.3,-0.7 -12.5,1.7 -16.9,6.2 -2.2,3 -3.4,6.5 -3.5,10.2 h 12 c 0.2,-1.6 0.8,-3.1 1.7,-4.3 1.7,-1.6 3.9,-2.4 6.2,-2.2 2.1,-0.1 4.1,0.3 6,1.1 1.4,0.8 2.2,2.4 2,4 0,1.6 -1.1,3.1 -2.7,3.5 -1.5,0.6 -3.1,0.9 -4.7,1.1 l -4.2,0.5 c -3.8,0.3 -7.5,1.4 -10.9,3.1 -4.5,2.5 -7.1,7.4 -6.8,12.6 -0.2,3.9 1.3,7.7 4.2,10.4 3,2.4 6.8,3.7 10.7,3.7 26.9,1.2 26.6,-14.1 26.8,-17.4 v -17.7 c 0.5,-4.7 -1.9,-9.3 -6,-11.6 m -6.1,26.9 c 0.3,3.2 -1,6.4 -3.5,8.5 -2.2,1.5 -4.8,2.3 -7.4,2.3 -1.6,0 -3.1,-0.5 -4.3,-1.4 -1.3,-1.2 -2,-2.9 -1.8,-4.7 -0.1,-2.1 1,-4.2 2.9,-5.2 1.8,-0.9 3.7,-1.4 5.7,-1.7 l 2.8,-0.5 c 1.1,-0.2 2.2,-0.5 3.3,-0.8 0.8,-0.3 1.6,-0.7 2.4,-1.2 z m 108,-23 c -10,-9.9 -26.1,-9.9 -36.1,0 -7.9,10.4 -7.9,24.9 0,35.3 10.1,9.8 26,9.8 36.1,0 7.9,-10.5 7.9,-24.9 0,-35.3 m -9.8,28.5 c -3.9,4.6 -10.8,5.1 -15.4,1.2 -0.4,-0.4 -0.8,-0.8 -1.2,-1.2 -3.9,-6.7 -3.9,-15 0,-21.7 3.9,-4.6 10.8,-5.1 15.4,-1.2 0.4,0.4 0.8,0.8 1.2,1.2 3.8,6.7 3.8,14.9 0,21.7"
     id="path4" /><path
     class="st1"
     d="m 233.7,317.9 c 0,39.6 -48.3,71.7 -107.8,71.7 -59.5,0 -107.8,-32.1 -107.8,-71.7 0,-39.6 48.3,-71.8 107.8,-71.8 59.5,0.1 107.8,32.2 107.8,71.8 z m 0,0"
     id="path6" /><path
     class="st2"
     d="m 231.6,314.8 c -29.5,-4.8 -66.3,11 -70.7,12.7 l -2.4,1 1,-2.4 c 1.7,-4.8 2.7,-18.2 2.1,-28.1 -0.7,-10 3.1,-19.6 4.8,-24 l 0.3,-1 c 1.4,-3.8 3.1,-3.8 5.1,-3.4 0.7,0 1.4,0.4 2.1,0.4 3.1,0 6.9,-1.4 9.6,-2.8 1.4,-0.7 2.7,-1.4 4.4,-1.4 1,-0.3 2.1,-0.3 2.8,-0.7 1,-0.3 2.1,-0.7 3.1,-0.7 3.8,-0.3 6.5,-1 6.5,-3.8 0,-0.3 0,-1 -0.7,-1.4 -0.7,-0.3 -1.7,-0.7 -4.8,0 h -0.3 c -1.4,0.4 -4.5,1 -1.7,-1.4 0,-0.4 0.3,-0.4 0.3,-0.4 1,-0.7 2.1,-2.4 2.8,-3.4 0.3,-0.3 0.7,-1 0.3,-1.7 -0.3,-2.1 -3.4,-4.1 -6.9,-6.2 -0.7,-0.3 -1.4,-1 -2.1,-1.4 -1.7,-1.4 -5.8,-4.5 -7.6,-2.8 -2.4,2.1 -11.7,11 -17.2,17.2 -5,5.7 -9.1,12.1 -12.4,18.9 l -1.4,3.1 c -3.1,6.9 -7.9,17.5 -12.7,28.8 l -2.1,5.1 c -0.3,0.7 -0.3,1 -0.7,1.7 -4.1,9.3 -9.6,20.9 -5.8,27.1 1.7,2.7 5.1,4.5 10.3,4.8 31.9,2.7 39.8,2.1 58.4,-0.4 3.4,-0.3 6.5,-1 10,-1.7 1.4,-0.3 2.7,-0.7 4.1,-0.7 1,0 1.7,0 2.8,0.3 1.7,0.7 2.4,1.7 3.1,3.1 l 0.7,1 1,-1 c 5.8,-6.5 9.9,-13.7 12.4,-21.3 1,-4.5 1.4,-8.9 1.7,-11 v -2.4 h -0.2 z m -116.4,0 c -0.7,-1.7 -1.7,-3.4 -2.1,-5.1 -4.8,-11.7 -9.6,-22.3 -12.7,-29.2 L 99,277.7 C 95.2,269.8 91.5,263.6 86.6,258.8 81.1,253 71.9,243.7 69.4,241.6 c -2.1,-1.7 -6.2,1.7 -7.5,2.8 -0.7,0.3 -1.4,1 -2.1,1.4 -3.4,2.1 -6.5,4.1 -6.9,6.2 0,0.7 0,1.4 0.3,1.7 0.3,0.7 1,1.7 1.7,2.4 0.3,0.3 0.7,0.3 1,0.7 h 0.4 c 2.7,2.4 2.4,3.1 2.1,2.8 -1.4,-0.7 -2.4,-1 -3.4,-1 h -0.3 c -3.4,-0.7 -4.5,-0.3 -5.1,0 -0.7,0.3 -0.7,1 -0.7,1.4 0,2.7 3.1,3.4 6.9,3.8 1,0 2.1,0.3 3.1,0.7 1,0.4 1.7,0.7 2.8,0.7 1.4,0.3 3.1,0.7 4.4,1.4 2.8,1.4 6.5,3.1 9.6,2.7 0.7,0 1.4,0 2.1,-0.3 2.1,-0.3 3.8,-0.3 5.1,3.4 l 0.3,1 c 1.7,4.4 5.5,14.1 4.8,24 -0.7,9.9 0.3,23.3 2.1,28.1 l 1,2.4 -2.4,-1 C 84.9,325.2 49.6,309.7 20.4,314.5 h -0.7 v 5.1 c 1,9.6 5.1,19.2 12.7,27.8 l 0.7,1 0.7,-1 c 0.7,-1 1.4,-1.4 2.4,-2.1 2.4,-0.7 3.8,-0.4 6.9,0.3 3.4,0.7 6.9,1.4 10,1.7 10.3,1.4 17.2,2.1 26.4,2.1 7.9,0 17.5,-0.7 31.9,-1.7 5.1,-0.3 8.6,-2.1 10.3,-4.8 3.8,-6.5 -1.4,-17.8 -5.8,-27.5 -0.3,0.4 -0.3,-0.2 -0.7,-0.6 z m 0,0"
     id="path8" /><path
     class="st0"
     d="m 214.4,352.6 c -0.7,0.3 -1,1 -1.7,1.4 l -0.4,0.3 c -0.7,0.3 -1,1 -1.7,1.4 -0.7,0.7 -1.4,1 -2.1,1.7 -0.7,0.3 -1.4,1 -1.7,1.4 l -0.3,0.4 c -0.7,0.3 -1.4,1 -1.7,1.4 0,0 -0.3,0 -0.3,0.4 -0.7,0.3 -1.4,1 -2.1,1.4 -0.7,0.4 -1.4,1 -2.1,1.4 l -0.3,0.3 -2.1,1 c 0,0 -0.3,0 -0.3,0.3 -1.7,1 -3.1,1.7 -4.8,2.8 -0.3,0 -0.3,0.3 -0.3,0.3 l -2.1,1 c -0.4,0 -0.4,0.3 -0.4,0.3 -1.7,0.7 -3.4,1.7 -5.1,2.4 -0.3,0 -0.3,0.3 -0.7,0.3 -0.7,0.4 -1.4,0.7 -2.1,0.7 -0.3,0 -0.3,0.3 -0.7,0.3 -0.7,0.3 -1.7,0.7 -2.7,1 -1,0.3 -1.7,0.7 -2.8,1 -0.3,0 -0.3,0 -0.7,0.3 -0.7,0.4 -1.4,0.4 -2.1,0.7 -0.4,0 -0.4,0.3 -0.7,0.3 -0.7,0.3 -1.7,0.3 -2.4,0.7 h -0.3 c -1,0.4 -1.7,0.7 -2.8,0.7 -0.3,0 -0.3,0 -0.7,0.3 -0.7,0.3 -1.4,0.3 -2.4,0.7 -0.3,0 -0.7,0 -0.7,0.4 -0.7,0.3 -1.7,0.3 -2.4,0.7 H 160 c -1,0.3 -2.1,0.3 -3.1,0.7 h -0.7 c -0.7,0.4 -1.7,0.4 -2.4,0.4 -0.3,0 -0.7,0 -1,0.3 -0.7,0 -1.7,0.3 -2.4,0.3 h -0.7 c -1,0.3 -2.1,0.3 -3.1,0.3 h -0.7 c -0.7,0 -1.7,0.3 -2.8,0.3 h -1 c -0.7,0 -1.7,0.4 -2.4,0.4 h -1 c -1,0 -2.1,0.3 -3.1,0.3 h -18.5 c -1,0 -2.1,0 -3.1,-0.3 h -0.3 c -1,0 -2.1,0 -3.1,-0.4 h -1 c -0.7,0 -1.7,0 -2.4,-0.3 h -1 c -1,0 -2.1,-0.3 -3.1,-0.3 h -0.3 c -1,0 -1.7,-0.3 -2.8,-0.3 h -1 c -0.7,0 -1.7,-0.3 -2.4,-0.3 H 96 C 95,381 93.9,381 92.9,380.7 h -0.3 c -0.7,-0.3 -1.7,-0.3 -2.4,-0.7 -0.3,0 -0.7,0 -1,-0.3 -0.7,-0.4 -1.4,-0.4 -2.1,-0.7 -0.3,0 -0.3,0 -0.7,-0.3 -1,-0.3 -2.1,-0.3 -2.8,-0.7 h -0.7 c -0.7,-0.4 -1.7,-0.4 -2.4,-0.7 -0.4,0 -0.7,-0.3 -0.7,-0.3 -0.7,-0.3 -1.4,-0.3 -2.1,-0.7 -0.3,0 -0.3,0 -0.7,-0.4 -1,-0.3 -1.7,-0.7 -2.8,-1 -0.3,0 -0.3,0 -0.7,-0.3 -0.7,-0.4 -1.4,-0.7 -2.1,-0.7 -0.3,0 -0.7,-0.3 -0.7,-0.3 -0.7,-0.3 -1.4,-0.7 -2.1,-0.7 -0.3,0 -0.3,0 -0.7,-0.4 -0.7,-0.3 -1.7,-0.7 -2.7,-1 -0.3,0 -0.3,-0.3 -0.7,-0.3 l -2.1,-1 c -0.3,0 -0.3,-0.3 -0.7,-0.3 l -2.1,-1 c 0,0 -0.4,0 -0.4,-0.3 -0.7,-0.3 -1.7,-0.7 -2.4,-1.4 -0.3,0 -0.3,-0.3 -0.7,-0.3 -0.7,-0.3 -1.4,-0.7 -1.7,-1 -0.4,0 -0.4,-0.3 -0.7,-0.3 l -2.1,-1 c 0,0 -0.3,0 -0.3,-0.4 -0.7,-0.3 -1.4,-1 -2.1,-1.4 -0.4,0 -0.4,-0.4 -0.7,-0.4 -0.7,-0.3 -1,-0.7 -1.7,-1 -0.3,0 -0.3,-0.3 -0.7,-0.3 -0.7,-0.4 -1.4,-0.7 -1.7,-1.4 0,0 -0.3,0 -0.3,-0.3 -0.7,-0.4 -1.4,-1 -2.1,-1.4 -0.3,0 -0.3,-0.3 -0.3,-0.3 -0.3,-0.4 -1,-0.7 -1.4,-1.4 -0.3,0 -0.3,-0.3 -0.7,-0.3 -0.7,-0.4 -1,-1 -1.7,-1.4 -0.7,-0.7 -1.4,-1 -1.7,-1.7 -0.3,0 -0.3,-0.3 -0.3,-0.3 l -1.7,-1.7 -0.3,-0.4 c 0.7,-1 1,-1.4 1.4,-1.7 1.4,-0.7 2.1,-0.3 5.1,0.4 3.4,0.7 6.9,1.4 10.3,1.7 18.5,2.4 26.8,3.1 59.1,0.3 6.2,-0.7 10.3,-2.8 12.4,-6.5 0.3,-0.3 0.3,-0.7 0.7,-1.4 0.4,0.3 0.4,0.7 0.7,1.4 2.1,3.8 6.5,5.8 12.4,6.5 32.3,2.7 40.5,2.1 59,-0.3 3.4,-0.4 6.9,-1 10.3,-1.7 3.1,-0.7 3.8,-0.7 5.1,-0.4 0.7,0.4 1,0.7 2.1,2.8 2.3,0.6 2.3,0.6 1.9,1 0,-0.4 0,-0.4 0,0 z m 2.8,-70.4 0.7,0.7 c 0.7,0.7 1,1.4 1.7,2.1 0.3,0.4 0.3,0.4 0.3,0.7 0.3,0.3 0.7,0.7 0.7,1 0.3,0.4 0.3,0.4 0.3,0.7 0.4,0.3 0.7,0.7 0.7,1 0.3,0.4 0.3,0.4 0.3,0.7 0.7,1.4 1.7,2.4 2.4,3.8 0,0.3 0.4,0.3 0.4,0.7 0.3,0.4 0.3,0.7 0.7,1 0,0.3 0.3,0.3 0.3,0.7 0.3,0.4 0.3,0.7 0.7,1 0,0.3 0.3,0.3 0.3,0.7 0.3,0.7 0.7,1.7 1,2.4 0,0.3 0,0.3 0.4,0.3 0,0.3 0.3,0.7 0.3,1 0,0.3 0.3,0.7 0.3,0.7 0,0.3 0.3,0.7 0.3,1 0,0.3 0.3,0.7 0.3,0.7 0,0.3 0.4,0.7 0.4,1 0,0.3 0,0.7 0.3,0.7 0.3,0.7 0.3,1.4 0.3,2.1 0,0.3 0,0.7 0.3,0.7 0,0.3 0,0.7 0.3,1 v 2.1 c -9.6,-1.4 -24.7,-1.4 -46.3,4.5 -7.5,3.1 -14.4,5.1 -21.6,8.2 1.4,-6.9 1.7,-17.5 1,-25.4 -0.7,-8.9 2.8,-17.8 4.8,-22.7 l 0.3,-1 c 0.4,-0.7 0.4,-1.4 1,-1.7 h 1 c 0.7,0 1.7,0.3 2.4,0.3 4.5,0.4 9.6,-2.4 11,-3.1 1,-0.7 2.4,-1 3.8,-1.4 1,-0.3 2.1,-0.7 3.4,-1 0.7,-0.3 1.4,-0.3 2.4,-0.3 1,0 2.4,-0.3 3.8,-0.7 7.6,4.8 14.1,10 19.3,15.8 z m -36.4,-39.8 c 1,-0.7 3.4,0.3 6.5,2.7 0.7,0.7 1.4,1 2.1,1.4 2.1,1.4 6.2,3.8 6.5,5.5 0,0.3 0,0.7 -0.3,1 v 0.3 c -0.7,1 -1.7,2.8 -2.4,3.1 l -0.7,0.7 c -1.4,1.4 -3.4,2.8 -4.1,2.8 -2.1,-0.3 -3.4,-0.7 -5.1,-1.4 1,-4.1 2.4,-3.1 5.1,-1.7 0,-0.7 -0.3,-1 -0.3,-1.7 l 2.1,-1 -2.4,-0.3 c -0.3,-1.7 -0.3,-3.1 -0.3,-4.8 -0.7,1 -0.7,2.1 -1,2.8 -0.3,0.7 -1,1.4 -1.4,1.7 l -1.4,-1.4 c -0.7,-0.7 -1.7,-1.4 -2.4,-1.7 0,0.3 -0.3,0.3 -0.3,0.3 2.4,3.4 2.4,4.1 -0.3,7.2 -2.4,2.7 -4.8,4.8 -7.2,7.2 1.7,1 3.8,0.3 6.2,-2.1 3.1,-3.4 3.1,-3.4 7.2,-1.7 l 0.7,0.3 c 1.7,0.7 2.7,-0.3 4.4,-1 1,-0.3 2.4,-1 3.4,-1 h 0.4 c 2.4,-0.4 3.8,-0.4 4.1,0 0,0 0.3,0.3 0.3,0.7 0,1.7 -1.4,2.4 -5.8,2.8 -1,0 -2.1,0.3 -3.4,0.7 -1,0.3 -1.7,0.7 -2.8,0.7 -1.7,0.4 -3.1,0.7 -4.4,1.7 -2.8,1.4 -6.2,2.8 -8.9,2.8 -0.7,0 -1.4,0 -1.7,-0.3 -2.4,-0.3 -4.4,-0.3 -6.2,4.1 l -0.3,1 c -1.7,4.8 -5.5,14.4 -5.1,24.4 0.7,10 -0.4,23.4 -2.1,27.8 l -2.4,4.5 4.5,-2.1 c 0.3,-0.4 39.5,-17.5 70,-12.7 v 1.4 c -0.3,2.8 -0.7,6.9 -1.7,11 -2.1,7.6 -6.2,14.8 -12,21 -0.7,-1.7 -1.7,-2.8 -3.8,-3.4 -1,-0.4 -2.1,-0.7 -3.1,-0.7 -1.4,0 -3.1,0.3 -4.4,0.7 -3.4,0.7 -6.5,1.4 -10,1.7 -18.2,2.4 -26.4,3.1 -58.4,0.3 -4.8,-0.3 -7.9,-2.1 -9.6,-4.5 -3.4,-5.8 1.7,-17.2 5.8,-26.4 1,-2.4 2.1,-4.8 3.1,-6.9 5.1,-12.7 10.3,-24 13.4,-30.6 l 0.7,-1.4 c 3.8,-7.9 7.5,-13.7 12,-18.9 5.5,-5.6 14.8,-14.6 17.2,-16.6 z m -54.9,6.2 c 13.7,0 26.8,1.7 38.4,4.8 -1.4,1.4 -2.4,2.4 -3.4,3.8 -5.3,5.9 -9.6,12.6 -12.7,19.9 l -0.7,1.4 c -3.1,6.9 -8.6,18.2 -13.4,30.9 -0.7,2.1 -1.7,4.1 -2.8,6.5 -2.4,5.1 -4.8,10.7 -6.2,16.1 -1.4,-5.5 -4.1,-11 -6.2,-16.1 l -2.8,-6.5 c -5.1,-12.7 -10.3,-24 -13.4,-30.9 l -0.7,-1.4 c -3.8,-8.2 -7.9,-14.4 -12.7,-19.9 -1,-1 -2.1,-2.1 -3.1,-3.4 11.9,-3.5 25.2,-5.2 39.7,-5.2 z m -75.6,11.3 c 0.3,-0.3 2.1,-0.3 4.1,0 h 0.7 l 3.1,1 c 1.7,1 2.7,1.7 4.4,1 0.3,0 0.7,-0.3 0.7,-0.3 4.1,-1.4 4.1,-1.4 7.2,1.7 2.4,2.7 4.4,3.1 6.2,2.1 -2.4,-2.4 -5.1,-4.8 -7.2,-7.2 -2.7,-3.1 -2.7,-4.1 -0.3,-7.2 0,-0.4 -0.3,-0.4 -0.3,-0.4 -0.7,0.7 -1.7,1 -2.4,1.7 l -1.4,1.4 c -0.7,-0.7 -1.4,-1 -1.4,-1.7 -0.3,-0.7 -0.3,-1.7 -1,-2.7 0,1.4 -0.3,3.1 -0.3,4.8 l -2.4,0.7 2.1,1 -0.3,1.4 c 2.4,-1.7 4.1,-2.7 5.1,1.7 -1.7,0.7 -3.4,0.7 -5.1,1.4 -0.7,0.3 -2.8,-1.4 -4.5,-2.8 0,-0.3 -0.3,-0.3 -0.3,-0.3 l -1,-1 c -0.7,-0.7 -1,-1.7 -1.4,-2.1 v -0.3 c -0.3,-0.3 -0.3,-0.7 -0.3,-1 0.3,-1.7 4.5,-4.5 6.5,-5.5 0.7,-0.3 1.4,-1 2.1,-1.4 2.8,-2.4 5.5,-3.8 6.5,-2.8 2.4,2.1 11.3,11 17.2,16.8 4.5,4.8 8.2,11 12,18.9 l 0.7,1.4 c 3.1,6.9 8.6,18.2 13.4,30.5 0.7,2.1 1.7,4.5 3.1,6.9 4.1,9.3 9.3,20.6 5.8,26.4 -1.4,2.7 -4.8,4.1 -9.6,4.5 -31.9,2.8 -39.8,2.1 -58.4,-0.3 -3.4,-0.3 -6.5,-1 -10,-1.7 -3.1,-0.7 -4.8,-1 -7.5,-0.3 -1.4,0.3 -2.1,1.4 -2.8,2.4 C 26.4,340.4 22,331.1 20.9,321.1 v -4.5 c 30.6,-5.1 67.6,12 68,12.4 l 4.5,2.1 -1.7,-4.5 c -1.7,-4.5 -2.8,-17.9 -2.1,-27.8 0.7,-9.9 -3.1,-19.6 -5.1,-24.4 l -0.3,-1 c -1.7,-4.5 -3.8,-4.5 -6.2,-4.1 -0.7,0 -1.4,0.3 -1.7,0.3 -2.8,0 -6.5,-1.4 -8.9,-2.7 -1.4,-0.7 -3.1,-1.4 -4.5,-1.7 -1,-0.3 -1.7,-0.3 -2.7,-0.7 -1,-0.3 -2.1,-0.7 -3.4,-0.7 -4.5,-0.7 -5.8,-1.4 -5.8,-2.8 -1,-0.8 -1,-1.1 -0.7,-1.1 z m 2.8,6.8 c 0.7,0.3 1.7,0.3 2.4,0.3 0.7,0 1.7,0.3 2.4,0.3 1,0.3 2.1,0.7 3.4,1 1.4,0.3 2.4,0.7 3.8,1.4 1.4,0.7 6.5,3.4 11,3.1 0.7,0 1.7,0 2.4,-0.3 h 1 c 0,0 0.3,0.3 1,1.7 l 0.3,1 c 1.7,4.8 5.5,13.7 4.8,22.7 -0.7,7.9 -0.4,18.5 1,25.4 -10.3,-4.5 -39.8,-15.1 -65.9,-11 0.3,-2.7 0.7,-5.1 1.4,-7.9 v -0.3 c 0,-0.4 0.3,-0.7 0.3,-1 0,-0.3 0.3,-0.7 0.3,-1 v -0.3 c 0.7,-2.1 1.7,-4.4 2.8,-6.5 0,0 0,-0.3 0.3,-0.3 0,0 0,-0.3 0.3,-0.3 0.3,-0.3 0.3,-0.7 0.7,-1 5,-10.5 14.3,-19.4 26.3,-27 z m 149.3,-2.4 c 0.7,-1 1.4,-2.1 1.4,-3.4 0,-1.4 -0.7,-2.7 -1.7,-3.8 -1,-0.7 -2.1,-1 -3.4,-1 0,0 0,-0.4 0.4,-0.4 0.7,-1 1,-2.4 0.7,-3.8 -0.7,-3.4 -5.1,-6.2 -8.2,-8.2 -0.7,-0.3 -1.4,-0.7 -1.7,-1 -6.2,-5.1 -9.6,-4.5 -11.3,-3.1 -1.7,1.4 -5.8,5.5 -10.3,10 -13.1,-3.4 -27.5,-5.5 -42.2,-5.5 -15.4,0 -30.2,2.1 -43.6,5.8 -4.5,-4.5 -8.9,-8.6 -10.7,-10.3 -1.7,-1.4 -5.5,-2.4 -11.3,3.1 -0.3,0.3 -1,0.7 -1.7,1 -3.1,1.7 -7.6,4.5 -8.2,8.2 -0.3,1.4 0,2.8 0.7,3.8 0,0 0,0.4 0.4,0.4 -1.4,0 -2.4,0.3 -3.4,1 -1,1 -1.7,2.1 -1.7,3.8 0,2.1 0.7,3.1 1.7,4.1 C 28.4,277.7 16,295.9 16,315.5 v 4.5 c 0,41.9 42.9,75.9 109.9,75.9 67.3,0 109.9,-34 109.9,-75.9 v -4.1 C 235.7,295.6 223,277.4 202.4,264.3 Z m 0,0"
     id="path10" /></g>
</svg>
