<?xml version="1.0" standalone="no"?>
<svg xmlns:xlink="http://www.w3.org/1999/xlink" id="wave" style="transform:rotate(0deg); transition: 0.3s" viewBox="0 0 1440 490" version="1.1" xmlns="http://www.w3.org/2000/svg"><defs><linearGradient id="sw-gradient-0" x1="0" x2="0" y1="1" y2="0"><stop stop-color="rgba(40, 41, 96, 1)" offset="0%"/><stop stop-color="rgba(33, 150, 243, 1)" offset="100%"/></linearGradient></defs><path style="transform:translate(0, 0px); opacity:1" fill="url(#sw-gradient-0)" d="M0,294L26.7,294C53.3,294,107,294,160,253.2C213.3,212,267,131,320,130.7C373.3,131,427,212,480,277.7C533.3,343,587,392,640,359.3C693.3,327,747,212,800,179.7C853.3,147,907,196,960,253.2C1013.3,310,1067,376,1120,351.2C1173.3,327,1227,212,1280,147C1333.3,82,1387,65,1440,89.8C1493.3,114,1547,180,1600,245C1653.3,310,1707,376,1760,351.2C1813.3,327,1867,212,1920,171.5C1973.3,131,2027,163,2080,212.3C2133.3,261,2187,327,2240,367.5C2293.3,408,2347,425,2400,392C2453.3,359,2507,278,2560,220.5C2613.3,163,2667,131,2720,114.3C2773.3,98,2827,98,2880,138.8C2933.3,180,2987,261,3040,277.7C3093.3,294,3147,245,3200,187.8C3253.3,131,3307,65,3360,32.7C3413.3,0,3467,0,3520,32.7C3573.3,65,3627,131,3680,138.8C3733.3,147,3787,98,3813,73.5L3840,49L3840,490L3813.3,490C3786.7,490,3733,490,3680,490C3626.7,490,3573,490,3520,490C3466.7,490,3413,490,3360,490C3306.7,490,3253,490,3200,490C3146.7,490,3093,490,3040,490C2986.7,490,2933,490,2880,490C2826.7,490,2773,490,2720,490C2666.7,490,2613,490,2560,490C2506.7,490,2453,490,2400,490C2346.7,490,2293,490,2240,490C2186.7,490,2133,490,2080,490C2026.7,490,1973,490,1920,490C1866.7,490,1813,490,1760,490C1706.7,490,1653,490,1600,490C1546.7,490,1493,490,1440,490C1386.7,490,1333,490,1280,490C1226.7,490,1173,490,1120,490C1066.7,490,1013,490,960,490C906.7,490,853,490,800,490C746.7,490,693,490,640,490C586.7,490,533,490,480,490C426.7,490,373,490,320,490C266.7,490,213,490,160,490C106.7,490,53,490,27,490L0,490Z"/><defs><linearGradient id="sw-gradient-1" x1="0" x2="0" y1="1" y2="0"><stop stop-color="rgba(40, 41, 96, 1)" offset="0%"/><stop stop-color="rgba(33, 150, 243, 1)" offset="100%"/></linearGradient></defs><path style="transform:translate(0, 50px); opacity:0.9" fill="url(#sw-gradient-1)" d="M0,196L26.7,204.2C53.3,212,107,229,160,220.5C213.3,212,267,180,320,196C373.3,212,427,278,480,326.7C533.3,376,587,408,640,375.7C693.3,343,747,245,800,196C853.3,147,907,147,960,163.3C1013.3,180,1067,212,1120,196C1173.3,180,1227,114,1280,147C1333.3,180,1387,310,1440,326.7C1493.3,343,1547,245,1600,179.7C1653.3,114,1707,82,1760,98C1813.3,114,1867,180,1920,245C1973.3,310,2027,376,2080,334.8C2133.3,294,2187,147,2240,81.7C2293.3,16,2347,33,2400,106.2C2453.3,180,2507,310,2560,359.3C2613.3,408,2667,376,2720,302.2C2773.3,229,2827,114,2880,65.3C2933.3,16,2987,33,3040,81.7C3093.3,131,3147,212,3200,261.3C3253.3,310,3307,327,3360,285.8C3413.3,245,3467,147,3520,106.2C3573.3,65,3627,82,3680,122.5C3733.3,163,3787,229,3813,261.3L3840,294L3840,490L3813.3,490C3786.7,490,3733,490,3680,490C3626.7,490,3573,490,3520,490C3466.7,490,3413,490,3360,490C3306.7,490,3253,490,3200,490C3146.7,490,3093,490,3040,490C2986.7,490,2933,490,2880,490C2826.7,490,2773,490,2720,490C2666.7,490,2613,490,2560,490C2506.7,490,2453,490,2400,490C2346.7,490,2293,490,2240,490C2186.7,490,2133,490,2080,490C2026.7,490,1973,490,1920,490C1866.7,490,1813,490,1760,490C1706.7,490,1653,490,1600,490C1546.7,490,1493,490,1440,490C1386.7,490,1333,490,1280,490C1226.7,490,1173,490,1120,490C1066.7,490,1013,490,960,490C906.7,490,853,490,800,490C746.7,490,693,490,640,490C586.7,490,533,490,480,490C426.7,490,373,490,320,490C266.7,490,213,490,160,490C106.7,490,53,490,27,490L0,490Z"/><defs><linearGradient id="sw-gradient-2" x1="0" x2="0" y1="1" y2="0"><stop stop-color="rgba(40, 41, 96, 1)" offset="0%"/><stop stop-color="rgba(33, 150, 243, 1)" offset="100%"/></linearGradient></defs><path style="transform:translate(0, 100px); opacity:0.8" fill="url(#sw-gradient-2)" d="M0,0L26.7,40.8C53.3,82,107,163,160,163.3C213.3,163,267,82,320,106.2C373.3,131,427,261,480,285.8C533.3,310,587,229,640,212.3C693.3,196,747,245,800,245C853.3,245,907,196,960,171.5C1013.3,147,1067,147,1120,171.5C1173.3,196,1227,245,1280,253.2C1333.3,261,1387,229,1440,236.8C1493.3,245,1547,294,1600,334.8C1653.3,376,1707,408,1760,383.8C1813.3,359,1867,278,1920,212.3C1973.3,147,2027,98,2080,98C2133.3,98,2187,147,2240,212.3C2293.3,278,2347,359,2400,326.7C2453.3,294,2507,147,2560,138.8C2613.3,131,2667,261,2720,294C2773.3,327,2827,261,2880,269.5C2933.3,278,2987,359,3040,343C3093.3,327,3147,212,3200,147C3253.3,82,3307,65,3360,65.3C3413.3,65,3467,82,3520,98C3573.3,114,3627,131,3680,171.5C3733.3,212,3787,278,3813,310.3L3840,343L3840,490L3813.3,490C3786.7,490,3733,490,3680,490C3626.7,490,3573,490,3520,490C3466.7,490,3413,490,3360,490C3306.7,490,3253,490,3200,490C3146.7,490,3093,490,3040,490C2986.7,490,2933,490,2880,490C2826.7,490,2773,490,2720,490C2666.7,490,2613,490,2560,490C2506.7,490,2453,490,2400,490C2346.7,490,2293,490,2240,490C2186.7,490,2133,490,2080,490C2026.7,490,1973,490,1920,490C1866.7,490,1813,490,1760,490C1706.7,490,1653,490,1600,490C1546.7,490,1493,490,1440,490C1386.7,490,1333,490,1280,490C1226.7,490,1173,490,1120,490C1066.7,490,1013,490,960,490C906.7,490,853,490,800,490C746.7,490,693,490,640,490C586.7,490,533,490,480,490C426.7,490,373,490,320,490C266.7,490,213,490,160,490C106.7,490,53,490,27,490L0,490Z"/><defs><linearGradient id="sw-gradient-3" x1="0" x2="0" y1="1" y2="0"><stop stop-color="rgba(40, 41, 96, 1)" offset="0%"/><stop stop-color="rgba(33, 150, 243, 1)" offset="100%"/></linearGradient></defs><path style="transform:translate(0, 150px); opacity:0.7" fill="url(#sw-gradient-3)" d="M0,294L26.7,261.3C53.3,229,107,163,160,187.8C213.3,212,267,327,320,310.3C373.3,294,427,147,480,81.7C533.3,16,587,33,640,81.7C693.3,131,747,212,800,212.3C853.3,212,907,131,960,81.7C1013.3,33,1067,16,1120,73.5C1173.3,131,1227,261,1280,334.8C1333.3,408,1387,425,1440,416.5C1493.3,408,1547,376,1600,343C1653.3,310,1707,278,1760,269.5C1813.3,261,1867,278,1920,294C1973.3,310,2027,327,2080,343C2133.3,359,2187,376,2240,383.8C2293.3,392,2347,392,2400,326.7C2453.3,261,2507,131,2560,81.7C2613.3,33,2667,65,2720,114.3C2773.3,163,2827,229,2880,253.2C2933.3,278,2987,261,3040,245C3093.3,229,3147,212,3200,212.3C3253.3,212,3307,229,3360,269.5C3413.3,310,3467,376,3520,400.2C3573.3,425,3627,408,3680,375.7C3733.3,343,3787,294,3813,269.5L3840,245L3840,490L3813.3,490C3786.7,490,3733,490,3680,490C3626.7,490,3573,490,3520,490C3466.7,490,3413,490,3360,490C3306.7,490,3253,490,3200,490C3146.7,490,3093,490,3040,490C2986.7,490,2933,490,2880,490C2826.7,490,2773,490,2720,490C2666.7,490,2613,490,2560,490C2506.7,490,2453,490,2400,490C2346.7,490,2293,490,2240,490C2186.7,490,2133,490,2080,490C2026.7,490,1973,490,1920,490C1866.7,490,1813,490,1760,490C1706.7,490,1653,490,1600,490C1546.7,490,1493,490,1440,490C1386.7,490,1333,490,1280,490C1226.7,490,1173,490,1120,490C1066.7,490,1013,490,960,490C906.7,490,853,490,800,490C746.7,490,693,490,640,490C586.7,490,533,490,480,490C426.7,490,373,490,320,490C266.7,490,213,490,160,490C106.7,490,53,490,27,490L0,490Z"/></svg>